<svg xmlns="http://www.w3.org/2000/svg" viewBox="0 0 480 360" fill="none" role="img" aria-hidden="true">
  <defs>
    <linearGradient id="heroGrad1" x1="0%" y1="0%" x2="100%" y2="100%">
      <stop offset="0%" stop-color="#ff3b5c"/>
      <stop offset="50%" stop-color="#ff6b35"/>
      <stop offset="100%" stop-color="#ffa500"/>
    </linearGradient>
    <filter id="shadow" x="-20%" y="-20%" width="140%" height="140%">
      <feDropShadow dx="0" dy="8" stdDeviation="12" flood-opacity="0.12"/>
    </filter>
  </defs>
  <!-- Browser-style frame -->
  <rect x="24" y="24" width="432" height="312" rx="16" fill="var(--color-surface, #fff)" stroke="var(--color-border, #e0e0e0)" stroke-width="2" filter="url(#shadow)"/>
  <rect x="24" y="24" width="432" height="40" rx="14" fill="var(--color-background-alt, #f5f5f3)"/>
  <circle cx="52" cy="44" r="6" fill="#e0e0e0"/>
  <circle cx="76" cy="44" r="6" fill="#e0e0e0"/>
  <circle cx="100" cy="44" r="6" fill="#e0e0e0"/>
  <!-- Header -->
  <rect x="48" y="80" width="384" height="32" rx="8" fill="var(--color-background-alt, #f5f5f3)"/>
  <text x="64" y="100" font-family="system-ui, sans-serif" font-size="14" font-weight="600" fill="var(--color-text, #1a1a1a)">Guest list &#183; Summit 2025</text>
  <!-- List rows -->
  <rect x="48" y="128" width="384" height="48" rx="10" fill="var(--color-surface, #fff)" stroke="var(--color-border, #e0e0e0)" stroke-width="1"/>
  <rect x="48" y="184" width="384" height="48" rx="10" fill="var(--color-surface, #fff)" stroke="var(--color-border, #e0e0e0)" stroke-width="1"/>
  <rect x="48" y="240" width="384" height="48" rx="10" fill="var(--color-surface, #fff)" stroke="var(--color-border, #e0e0e0)" stroke-width="1"/>
  <text x="64" y="158" font-family="system-ui, sans-serif" font-size="14" font-weight="500" fill="var(--color-text, #1a1a1a)">Sarah Chen</text>
  <text x="64" y="176" font-family="system-ui, sans-serif" font-size="12" fill="var(--color-text-muted, #4a4a4a)">VP Product &#183; TechCorp</text>
  <rect x="368" y="138" width="56" height="24" rx="6" fill="url(#heroGrad1)" opacity="0.9"/>
  <text x="384" y="155" font-family="system-ui, sans-serif" font-size="11" font-weight="600" fill="white">94</text>
  <text x="64" y="214" font-family="system-ui, sans-serif" font-size="14" font-weight="500" fill="var(--color-text, #1a1a1a)">Marcus Webb</text>
  <text x="64" y="232" font-family="system-ui, sans-serif" font-size="12" fill="var(--color-text-muted, #4a4a4a)">Head of Events &#183; Acme</text>
  <rect x="368" y="194" width="56" height="24" rx="6" fill="url(#heroGrad1)" opacity="0.75"/>
  <text x="382" y="211" font-family="system-ui, sans-serif" font-size="11" font-weight="600" fill="white">87</text>
  <text x="64" y="270" font-family="system-ui, sans-serif" font-size="14" font-weight="500" fill="var(--color-text, #1a1a1a)">Jordan Lee</text>
  <text x="64" y="288" font-family="system-ui, sans-serif" font-size="12" fill="var(--color-text-muted, #4a4a4a)">Director &#183; GrowthCo</text>
  <rect x="368" y="250" width="56" height="24" rx="6" fill="url(#heroGrad1)" opacity="0.6"/>
  <text x="382" y="267" font-family="system-ui, sans-serif" font-size="11" font-weight="600" fill="white">82</text>
</svg>
